Genre:Comedy
Language:English
IMDb:http://www.imdb.com/title/tt0482461/
Source:720p.BluRay.x264-BRMP

Format : Matroska
File size : 1.30 GiB
Duration : 1h 34mn
Overall bit rate : 1 964 Kbps
Movie name : Avidemux


Video
Codec ID : V_MPEG4/ISO/AVC
Duration : 1h 34mn
Bit rate : 1 600 Kbps
Width : 1 280 pixels
Height : 720 pixels
Display aspect ratio : 16:9
Frame rate mode : Variable
Frame rate : 23.976 fps
Color space : YUV
Chroma subsampling : 4:2:0
Bit depth : 8 bits
Scan type : Progressive
Bits/(Pixel*Frame) : 0.072
Stream size : 1.02 GiB (78%)


Audio
ID : 2
Format : AC-3
Format/Info : Audio Coding 3
Mode extension : CM (complete main)
Codec ID : A_AC3
Duration : 1h 34mn
Bit rate mode : Constant
Bit rate : 384 Kbps
Channel(s) : 6 channels
Channel positions : Front: L C R, Side: L R, LFE
Sampling rate : 48.0 KHz
Bit depth : 16 bits
Video delay : -1mn 5s
Stream size : 261 MiB (20%)
Language : English


Plot:
Barry Munday wakes up after being attacked to realize that he's missing his family jewels. To make matters worse, he learns he's facing a paternity lawsuit filed by a woman he can't remember having sex with.




Screenshots:
 
http://rapidhdd.com/images/114640vlcsnap-2010-12-09-05h13m42s181.png
 
http://www.rapidhdd.com/images/28648vlcsnap-2010-12-09-05h15m09s21.png
 
http://www.rapidhdd.com/images/780368vlcsnap-2010-12-09-05h15m51s190.png
 
http://www.rapidhdd.com/images/551821vlcsnap-2010-12-09-05h14m41s201.png
 
http://www.rapidhdd.com/images/188044vlcsnap-2010-12-09-05h16m18s203.png
 
http://www.rapidhdd.com/images/501438vlcsnap-2010-12-09-05h16m29s60.png